<svg width="38" height="38" viewBox="0 0 38 38" fill="none" xmlns="http://www.w3.org/2000/svg">
<path d="M18.9959 35.5C22.5946 35.4992 26.0944 34.3219 28.9619 32.1475C31.8294 29.9731 33.9074 26.9208 34.8792 23.4558C35.851 19.9907 35.6633 16.303 34.3448 12.9546C33.0263 9.60611 30.6492 6.78053 27.5757 4.90843C24.5023 3.03633 20.9011 2.22037 17.3209 2.58488C13.7407 2.9494 10.3778 4.47441 7.74479 6.92751C5.11173 9.38061 3.35287 12.6273 2.73623 16.1728C2.1196 19.7183 2.67901 23.3681 4.32922 26.5662L2.49589 35.5L11.4297 33.6667C13.6957 34.8382 16.2697 35.5 18.9959 35.5Z" stroke="#222222" stroke-width="3.66667" stroke-linecap="round" stroke-linejoin="round"/>
<path d="M10.75 19H10.7683V19.0183H10.75V19ZM19 19H19.0183V19.0183H19V19ZM27.25 19H27.2683V19.0183H27.25V19Z" stroke="#222222" stroke-width="5.5" stroke-linejoin="round"/>
</svg>
