<svg width="24" height="24" viewBox="0 0 24 24" fill="none" xmlns="http://www.w3.org/2000/svg">
<path d="M5.58338 10.8327C5.42866 10.8327 5.28027 10.7712 5.17087 10.6618C5.06146 10.5524 5 10.404 5 10.2493V5.58338C5 5.42866 5.06146 5.28027 5.17087 5.17087C5.28027 5.06146 5.42866 5 5.58338 5H10.2504C10.4052 5 10.5535 5.06146 10.663 5.17087C10.7724 5.28027 10.8338 5.42866 10.8338 5.58338V10.2493C10.8338 10.404 10.7724 10.5524 10.663 10.6618C10.5535 10.7712 10.4052 10.8327 10.2504 10.8327H5.58338ZM13.7507 10.8327C13.596 10.8327 13.4476 10.7712 13.3382 10.6618C13.2288 10.5524 13.1673 10.404 13.1673 10.2493V5.58338C13.1673 5.42866 13.2288 5.28027 13.3382 5.17087C13.4476 5.06146 13.596 5 13.7507 5H18.4166C18.5713 5 18.7197 5.06146 18.8291 5.17087C18.9385 5.28027 19 5.42866 19 5.58338V10.2493C19 10.404 18.9385 10.5524 18.8291 10.6618C18.7197 10.7712 18.5713 10.8327 18.4166 10.8327H13.7507ZM5.58338 19C5.42866 19 5.28027 18.9385 5.17087 18.8291C5.06146 18.7197 5 18.5713 5 18.4166V13.7496C5 13.5948 5.06146 13.4465 5.17087 13.337C5.28027 13.2276 5.42866 13.1662 5.58338 13.1662H10.2504C10.4052 13.1662 10.5535 13.2276 10.663 13.337C10.7724 13.4465 10.8338 13.5948 10.8338 13.7496V18.4166C10.8338 18.5713 10.7724 18.7197 10.663 18.8291C10.5535 18.9385 10.4052 19 10.2504 19H5.58338ZM13.7507 19C13.596 19 13.4476 18.9385 13.3382 18.8291C13.2288 18.7197 13.1673 18.5713 13.1673 18.4166V13.7496C13.1673 13.5948 13.2288 13.4465 13.3382 13.337C13.4476 13.2276 13.596 13.1662 13.7507 13.1662H18.4166C18.5713 13.1662 18.7197 13.2276 18.8291 13.337C18.9385 13.4465 19 13.5948 19 13.7496V18.4166C19 18.5713 18.9385 18.7197 18.8291 18.8291C18.7197 18.9385 18.5713 19 18.4166 19H13.7507Z" fill="#222222"/>
</svg>
