<svg width="24" height="24" viewBox="0 0 24 24" fill="none" xmlns="http://www.w3.org/2000/svg">
<path fill-rule="evenodd" clip-rule="evenodd" d="M2.69239 15.7692C3.14125 15.7692 3.57171 15.9394 3.8891 16.2424C4.20648 16.5453 4.38479 16.9562 4.38479 17.3846C4.38479 17.813 4.20648 18.2239 3.8891 18.5269C3.57171 18.8298 3.14125 19 2.69239 19C2.24354 19 1.81308 18.8298 1.49569 18.5269C1.17831 18.2239 1 17.813 1 17.3846C1 16.9562 1.17831 16.5453 1.49569 16.2424C1.81308 15.9394 2.24354 15.7692 2.69239 15.7692ZM21.7827 16.3077C22.4066 16.3077 22.9121 16.7858 22.9121 17.3846C22.9121 17.9796 22.41 18.4615 21.7827 18.4615H7.20657C7.05823 18.462 6.91126 18.4344 6.77411 18.3805C6.63696 18.3265 6.51233 18.2472 6.40738 18.1471C6.30243 18.0471 6.21923 17.9282 6.16257 17.7973C6.1059 17.6665 6.07688 17.5262 6.07718 17.3846C6.07718 16.7896 6.57926 16.3077 7.20657 16.3077H21.7827ZM2.69239 10.3846C3.14125 10.3846 3.57171 10.5548 3.8891 10.8577C4.20648 11.1607 4.38479 11.5716 4.38479 12C4.38479 12.4284 4.20648 12.8393 3.8891 13.1422C3.57171 13.4452 3.14125 13.6154 2.69239 13.6154C2.24354 13.6154 1.81308 13.4452 1.49569 13.1422C1.17831 12.8393 1 12.4284 1 12C1 11.5716 1.17831 11.1607 1.49569 10.8577C1.81308 10.5548 2.24354 10.3846 2.69239 10.3846ZM21.7827 10.9231C22.4066 10.9231 22.9121 11.4012 22.9121 12C22.9121 12.595 22.41 13.0769 21.7827 13.0769H7.20657C7.05823 13.0773 6.91126 13.0498 6.77411 12.9958C6.63696 12.9419 6.51233 12.8626 6.40738 12.7625C6.30243 12.6624 6.21923 12.5436 6.16257 12.4127C6.1059 12.2818 6.07688 12.1416 6.07718 12C6.07718 11.405 6.57926 10.9231 7.20657 10.9231H21.7827ZM2.69239 5C3.14125 5 3.57171 5.17019 3.8891 5.47313C4.20648 5.77608 4.38479 6.18696 4.38479 6.61538C4.38479 7.04381 4.20648 7.45469 3.8891 7.75763C3.57171 8.06058 3.14125 8.23077 2.69239 8.23077C2.24354 8.23077 1.81308 8.06058 1.49569 7.75763C1.17831 7.45469 1 7.04381 1 6.61538C1 6.18696 1.17831 5.77608 1.49569 5.47313C1.81308 5.17019 2.24354 5 2.69239 5ZM21.8706 5.53846C22.4945 5.53846 23 6.01662 23 6.61538C23 7.21038 22.4979 7.69231 21.8706 7.69231H7.20657C7.05823 7.69273 6.91126 7.66518 6.77411 7.61122C6.63696 7.55726 6.51233 7.47797 6.40738 7.3779C6.30243 7.27783 6.21923 7.15895 6.16257 7.02809C6.1059 6.89723 6.07688 6.75698 6.07718 6.61538C6.07718 6.02038 6.57926 5.53846 7.20657 5.53846H21.8706Z" fill="#222222"/>
</svg>
