<svg width="24" height="24" viewBox="0 0 24 24" fill="none" xmlns="http://www.w3.org/2000/svg">
<path d="M17 17C16.4696 17 15.9609 17.2107 15.5858 17.5858C15.2107 17.9609 15 18.4696 15 19C15 19.5304 15.2107 20.0391 15.5858 20.4142C15.9609 20.7893 16.4696 21 17 21C17.5304 21 18.0391 20.7893 18.4142 20.4142C18.7893 20.0391 19 19.5304 19 19C19 18.4696 18.7893 17.9609 18.4142 17.5858C18.0391 17.2107 17.5304 17 17 17ZM17 17H9.294C8.833 17 8.602 17 8.412 16.918C8.2446 16.8458 8.10008 16.7293 7.994 16.581C7.874 16.414 7.827 16.191 7.733 15.751L5.27 4.265C5.174 3.814 5.125 3.588 5.005 3.42C4.89874 3.27126 4.75386 3.15438 4.586 3.082C4.397 3 4.167 3 3.707 3H3M6 6H18.873C19.595 6 19.955 6 20.198 6.15C20.4102 6.28187 20.5654 6.48843 20.633 6.729C20.71 7.003 20.611 7.35 20.411 8.043L19.026 12.843C18.906 13.258 18.846 13.465 18.726 13.619C18.6185 13.7549 18.4775 13.8607 18.317 13.926C18.137 14 17.921 14 17.492 14H7.73M8 21C7.46957 21 6.96086 20.7893 6.58579 20.4142C6.21071 20.0391 6 19.5304 6 19C6 18.4696 6.21071 17.9609 6.58579 17.5858C6.96086 17.2107 7.46957 17 8 17C8.53043 17 9.03914 17.2107 9.41421 17.5858C9.78929 17.9609 10 18.4696 10 19C10 19.5304 9.78929 20.0391 9.41421 20.4142C9.03914 20.7893 8.53043 21 8 21Z" stroke="#222222" stroke-width="2" stroke-linecap="round" stroke-linejoin="round"/>
</svg>
