<svg width="24" height="24" viewBox="0 0 24 24" fill="none" xmlns="http://www.w3.org/2000/svg">
<path d="M11.9664 22.537L12 22.5676L12.0336 22.537C14.7857 20.0356 16.8516 17.7197 18.2297 15.5897C19.6076 13.4599 20.3 11.5128 20.3 9.75C20.3 7.5487 19.4255 5.43757 17.869 3.88101C16.3124 2.32446 14.2013 1.45 12 1.45C9.7987 1.45 7.68757 2.32446 6.13101 3.88101C4.57446 5.43757 3.7 7.5487 3.7 9.75C3.7 11.5128 4.39238 13.4599 5.77033 15.5897C7.14843 17.7197 9.21427 20.0356 11.9664 22.537ZM16.7376 5.01238C17.9941 6.26888 18.7 7.97305 18.7 9.75C18.7 11.1215 18.1511 12.7067 17.0331 14.4912C15.921 16.2662 14.248 18.2349 12 20.3819C9.75196 18.2349 8.079 16.2662 6.96693 14.4912C5.84892 12.7067 5.3 11.1215 5.3 9.75C5.3 7.97305 6.00589 6.26888 7.26238 5.01238C8.51888 3.75589 10.223 3.05 12 3.05C13.777 3.05 15.4811 3.75589 16.7376 5.01238Z" fill="black" stroke="black" stroke-width="0.1"/>
<path d="M13.5556 11.3056C13.1431 11.7182 12.5835 11.95 12 11.95C11.4165 11.95 10.8569 11.7182 10.4444 11.3056C10.0318 10.8931 9.8 10.3335 9.8 9.75C9.8 9.16652 10.0318 8.60694 10.4444 8.19436C10.8569 7.78178 11.4165 7.55 12 7.55C12.5835 7.55 13.1431 7.78178 13.5556 8.19436C13.9682 8.60694 14.2 9.16652 14.2 9.75C14.2 10.3335 13.9682 10.8931 13.5556 11.3056ZM9.31299 12.437C10.0256 13.1496 10.9922 13.55 12 13.55C13.0078 13.55 13.9744 13.1496 14.687 12.437C15.3996 11.7244 15.8 10.7578 15.8 9.75C15.8 8.74218 15.3996 7.77563 14.687 7.06299C13.9744 6.35036 13.0078 5.95 12 5.95C10.9922 5.95 10.0256 6.35036 9.31299 7.06299C8.60036 7.77563 8.2 8.74218 8.2 9.75C8.2 10.7578 8.60036 11.7244 9.31299 12.437Z" fill="black" stroke="black" stroke-width="0.1"/>
</svg>
