<svg width="25" height="24" viewBox="0 0 25 24" fill="none" xmlns="http://www.w3.org/2000/svg">
<path d="M17.75 2.25H7.25C6.42157 2.25 5.75 2.92157 5.75 3.75V20.25C5.75 21.0784 6.42157 21.75 7.25 21.75H17.75C18.5784 21.75 19.25 21.0784 19.25 20.25V3.75C19.25 2.92157 18.5784 2.25 17.75 2.25Z" stroke="#222222" stroke-width="1.5" stroke-linecap="round" stroke-linejoin="round"/>
<path d="M8 5.25H16.9995V8.25H8V5.25Z" stroke="#222222" stroke-width="1.5" stroke-linecap="round" stroke-linejoin="round"/>
<path d="M8.375 12.75C8.99632 12.75 9.5 12.2463 9.5 11.625C9.5 11.0037 8.99632 10.5 8.375 10.5C7.75368 10.5 7.25 11.0037 7.25 11.625C7.25 12.2463 7.75368 12.75 8.375 12.75Z" fill="#222222"/>
<path d="M12.5 12.75C13.1213 12.75 13.625 12.2463 13.625 11.625C13.625 11.0037 13.1213 10.5 12.5 10.5C11.8787 10.5 11.375 11.0037 11.375 11.625C11.375 12.2463 11.8787 12.75 12.5 12.75Z" fill="#222222"/>
<path d="M16.625 12.75C17.2463 12.75 17.75 12.2463 17.75 11.625C17.75 11.0037 17.2463 10.5 16.625 10.5C16.0037 10.5 15.5 11.0037 15.5 11.625C15.5 12.2463 16.0037 12.75 16.625 12.75Z" fill="#222222"/>
<path d="M8.375 16.5C8.99632 16.5 9.5 15.9963 9.5 15.375C9.5 14.7537 8.99632 14.25 8.375 14.25C7.75368 14.25 7.25 14.7537 7.25 15.375C7.25 15.9963 7.75368 16.5 8.375 16.5Z" fill="#222222"/>
<path d="M12.5 16.5C13.1213 16.5 13.625 15.9963 13.625 15.375C13.625 14.7537 13.1213 14.25 12.5 14.25C11.8787 14.25 11.375 14.7537 11.375 15.375C11.375 15.9963 11.8787 16.5 12.5 16.5Z" fill="#222222"/>
<path d="M8.375 20.25C8.99632 20.25 9.5 19.7463 9.5 19.125C9.5 18.5037 8.99632 18 8.375 18C7.75368 18 7.25 18.5037 7.25 19.125C7.25 19.7463 7.75368 20.25 8.375 20.25Z" fill="#222222"/>
<path d="M12.5 20.25C13.1213 20.25 13.625 19.7463 13.625 19.125C13.625 18.5037 13.1213 18 12.5 18C11.8787 18 11.375 18.5037 11.375 19.125C11.375 19.7463 11.8787 20.25 12.5 20.25Z" fill="#222222"/>
<path d="M17.75 15.375C17.75 14.7537 17.2463 14.25 16.625 14.25C16.0037 14.25 15.5 14.7537 15.5 15.375V19.125C15.5 19.7463 16.0037 20.25 16.625 20.25C17.2463 20.25 17.75 19.7463 17.75 19.125V15.375Z" fill="#222222"/>
</svg>
