<svg width="25" height="24" viewBox="0 0 25 24" fill="none" xmlns="http://www.w3.org/2000/svg">
<g clip-path="url(#clip0_273_7841)">
<path fill-rule="evenodd" clip-rule="evenodd" d="M20.9778 3.51118C20.6993 3.23255 20.3685 3.01153 20.0045 2.86073C19.6405 2.70994 19.2504 2.63232 18.8563 2.63232C18.4623 2.63232 18.0722 2.70994 17.7082 2.86073C17.3442 3.01153 17.0134 3.23255 16.7348 3.51118L15.2018 5.04418C14.6433 4.77586 14.0152 4.68765 13.4043 4.79173C12.7935 4.8958 12.23 5.18704 11.7918 5.62518L11.0788 6.33918C10.893 6.52491 10.7456 6.74543 10.6451 6.98813C10.5445 7.23083 10.4928 7.49097 10.4928 7.75368C10.4928 8.0164 10.5445 8.27653 10.6451 8.51924C10.7456 8.76194 10.893 8.98246 11.0788 9.16818L4.59284 15.6532C4.31431 15.9319 4.09341 16.2627 3.94276 16.6268C3.79211 16.9909 3.71467 17.3812 3.71484 17.7752V19.5752C3.71484 19.8934 3.84127 20.1987 4.06632 20.4237C4.29136 20.6488 4.59658 20.7752 4.91484 20.7752H6.71484C7.51023 20.7745 8.27277 20.458 8.83484 19.8952L15.3208 13.4112C15.5066 13.597 15.7271 13.7444 15.9698 13.8449C16.2125 13.9455 16.4726 13.9973 16.7353 13.9973C16.9981 13.9973 17.2582 13.9455 17.5009 13.8449C17.7436 13.7444 17.9641 13.597 18.1498 13.4112L18.8638 12.6962C19.302 12.258 19.5932 11.6945 19.6973 11.0837C19.8014 10.4728 19.7132 9.84474 19.4448 9.28618L20.9778 7.75418C21.2565 7.4756 21.4775 7.14486 21.6283 6.78085C21.7791 6.41684 21.8567 6.02669 21.8567 5.63268C21.8567 5.23868 21.7791 4.84853 21.6283 4.48452C21.4775 4.12051 21.2565 3.78977 20.9778 3.51118ZM6.00784 17.0682L12.4928 10.5822L13.9068 11.9962L7.42184 18.4822C7.23435 18.6697 6.98004 18.7751 6.71484 18.7752H5.71484V17.7752C5.7149 17.51 5.82029 17.2557 6.00784 17.0682Z" fill="#222222"/>
</g>
<defs>
<clipPath id="clip0_273_7841">
<rect width="24" height="24" fill="white" transform="translate(0.5)"/>
</clipPath>
</defs>
</svg>
