<svg width="24" height="24" viewBox="0 0 24 24" fill="none" xmlns="http://www.w3.org/2000/svg">
<path d="M15.7473 2.9469C16.1224 2.57196 16.631 2.36133 17.1613 2.36133C17.6917 2.36133 18.2003 2.57196 18.5753 2.9469L21.0503 5.4219C21.2361 5.60763 21.3835 5.82814 21.4841 6.07085C21.5847 6.31355 21.6364 6.57369 21.6364 6.8364C21.6364 7.09911 21.5847 7.35925 21.4841 7.60196C21.3835 7.84466 21.2361 8.06517 21.0503 8.2509L9.15734 20.1439L2.77734 21.2199L3.85434 14.8399L15.7473 2.9469ZM15.5183 6.0039L17.9933 8.4789L19.6363 6.8359L17.1613 4.3619L15.5183 6.0039ZM16.5783 9.8939L14.1043 7.4189L5.72034 15.8029L5.21734 18.7799L8.19434 18.2779L16.5783 9.8939Z" fill="#222222"/>
</svg>
