<svg width="44" height="44" viewBox="0 0 44 44" fill="none" xmlns="http://www.w3.org/2000/svg">
<path d="M22 38.5C17.7833 38.5 14.1093 37.1024 10.978 34.3072C7.84667 31.5119 6.05122 28.0207 5.59167 23.8333H9.35C9.77778 27.0111 11.1913 29.6389 13.5905 31.7167C15.9897 33.7944 18.7929 34.8333 22 34.8333C25.575 34.8333 28.6079 33.5885 31.0988 31.0988C33.5897 28.6092 34.8346 25.5762 34.8333 22C34.8333 18.425 33.5885 15.3927 31.0988 12.903C28.6092 10.4133 25.5762 9.16789 22 9.16667C19.8917 9.16667 17.9208 9.65556 16.0875 10.6333C14.2542 11.6111 12.7111 12.9556 11.4583 14.6667H16.5V18.3333H5.5V7.33333H9.16667V11.6417C10.725 9.68611 12.6274 8.17361 14.8738 7.10417C17.1203 6.03472 19.4957 5.5 22 5.5C24.2917 5.5 26.4385 5.93572 28.4405 6.80717C30.4425 7.67861 32.1842 8.85439 33.6655 10.3345C35.1468 11.8171 36.3232 13.5587 37.1947 15.5595C38.0661 17.5603 38.5012 19.7071 38.5 22C38.5 24.2917 38.0649 26.4385 37.1947 28.4405C36.3244 30.4425 35.1481 32.1842 33.6655 33.6655C32.1829 35.1468 30.4413 36.3232 28.4405 37.1947C26.4397 38.0661 24.2929 38.5012 22 38.5ZM27.1333 29.7L20.1667 22.7333V12.8333H23.8333V21.2667L29.7 27.1333L27.1333 29.7Z" fill="#222222"/>
</svg>
