<svg width="22" height="18" viewBox="0 0 22 18" fill="none" xmlns="http://www.w3.org/2000/svg">
<path d="M11.0016 0C16.3936 0 20.8796 3.88 21.8206 9C20.8806 14.12 16.3936 18 11.0016 18C5.60959 18 1.12359 14.12 0.183594 9C1.12359 3.88 5.60959 0 11.0016 0ZM11.0016 16C13.0412 15.9998 15.0204 15.3071 16.6151 14.0355C18.2097 12.7638 19.3255 10.9884 19.7796 9C19.3242 7.01282 18.208 5.23896 16.6136 3.96854C15.0191 2.69813 13.0408 2.00635 11.0021 2.00635C8.96341 2.00635 6.98505 2.69813 5.39059 3.96854C3.79614 5.23896 2.67995 7.01282 2.22459 9C2.67869 10.9883 3.79427 12.7635 5.38874 14.0352C6.98321 15.3068 8.96212 15.9996 11.0016 16ZM11.0016 13.5C9.80812 13.5 8.66353 13.0259 7.81961 12.182C6.9757 11.3381 6.50159 10.1935 6.50159 9C6.50159 7.80653 6.9757 6.66193 7.81961 5.81802C8.66353 4.97411 9.80812 4.5 11.0016 4.5C12.1951 4.5 13.3397 4.97411 14.1836 5.81802C15.0275 6.66193 15.5016 7.80653 15.5016 9C15.5016 10.1935 15.0275 11.3381 14.1836 12.182C13.3397 13.0259 12.1951 13.5 11.0016 13.5ZM11.0016 11.5C11.6646 11.5 12.3005 11.2366 12.7694 10.7678C13.2382 10.2989 13.5016 9.66304 13.5016 9C13.5016 8.33696 13.2382 7.70107 12.7694 7.23223C12.3005 6.76339 11.6646 6.5 11.0016 6.5C10.3386 6.5 9.70267 6.76339 9.23383 7.23223C8.76499 7.70107 8.50159 8.33696 8.50159 9C8.50159 9.66304 8.76499 10.2989 9.23383 10.7678C9.70267 11.2366 10.3386 11.5 11.0016 11.5Z" fill="#222222"/>
</svg>
