<svg width="24" height="24" viewBox="0 0 24 24" fill="none" xmlns="http://www.w3.org/2000/svg">
<path d="M17.8846 19.2975C16.1255 20.4133 14.0847 21.004 12.0016 21.0005C6.60959 21.0005 2.12359 17.1205 1.18359 12.0005C1.61328 9.67186 2.78415 7.54445 4.52159 5.93553L1.39559 2.80853L2.80959 1.39453L22.6086 21.1925L21.1946 22.6075L17.8846 19.2975ZM5.93759 7.35053C4.57823 8.58598 3.63119 10.2092 3.22459 12.0005C3.53689 13.367 4.16386 14.6417 5.0556 15.7231C5.94734 16.8046 7.07922 17.6629 8.36115 18.2298C9.64307 18.7968 11.0396 19.0566 12.4397 18.9887C13.8397 18.9207 15.2046 18.5269 16.4256 17.8385L14.3976 15.8105C13.5343 16.3543 12.5118 16.5886 11.4978 16.475C10.4839 16.3613 9.53863 15.9064 8.81716 15.185C8.09569 14.4635 7.64082 13.5183 7.52715 12.5043C7.41349 11.4903 7.64778 10.4678 8.19159 9.60453L5.93759 7.35053ZM12.9156 14.3285L9.67359 11.0875C9.49566 11.5405 9.45378 12.0355 9.5531 12.5119C9.65242 12.9883 9.88861 13.4253 10.2327 13.7694C10.5768 14.1135 11.0139 14.3497 11.4902 14.449C11.9666 14.5483 12.4627 14.5065 12.9156 14.3285ZM20.8076 16.5935L19.3766 15.1625C20.0458 14.21 20.5224 13.1359 20.7796 12.0005C20.5078 10.8101 19.9968 9.68746 19.2777 8.70073C18.5585 7.71399 17.6461 6.88383 16.5961 6.26069C15.5461 5.63756 14.3803 5.23447 13.1696 5.07594C11.9589 4.91742 10.7287 5.00675 9.55359 5.33853L7.97559 3.76053C9.22259 3.27053 10.5816 3.00053 12.0016 3.00053C17.3936 3.00053 21.8796 6.88053 22.8206 12.0005C22.5143 13.6666 21.8246 15.2388 20.8076 16.5935ZM11.7246 7.50953C12.3611 7.47019 12.9987 7.5666 13.5951 7.79235C14.1916 8.0181 14.7332 8.36804 15.1841 8.81898C15.6351 9.26992 15.985 9.81156 16.2108 10.408C16.4365 11.0044 16.5329 11.642 16.4936 12.2785L11.7246 7.50953Z" fill="#222222"/>
</svg>
